<svg width="30" height="30" viewBox="0 0 30 30" fill="none" xmlns="http://www.w3.org/2000/svg">
<g id="Group">
<path id="Vector" d="M20 24V22C20 20.9391 19.5786 19.9217 18.8284 19.1716C18.0783 18.4214 17.0609 18 16 18H8C6.93913 18 5.92172 18.4214 5.17157 19.1716C4.42143 19.9217 4 20.9391 4 22V24" stroke="white" stroke-width="2" stroke-linecap="round" stroke-linejoin="round"/>
<path id="Vector_2" d="M12 14C14.2091 14 16 12.2091 16 10C16 7.79086 14.2091 6 12 6C9.79086 6 8 7.79086 8 10C8 12.2091 9.79086 14 12 14Z" stroke="white" stroke-width="2" stroke-linecap="round" stroke-linejoin="round"/>
<path id="Vector_3" d="M26 24V21.9557C25.9993 21.0498 25.7044 20.1698 25.1614 19.4538C24.6184 18.7378 23.8581 18.2265 23 18" stroke="white" stroke-width="2" stroke-linecap="round" stroke-linejoin="round"/>
<path id="Vector_4" d="M19 6C19.8582 6.22741 20.6188 6.74395 21.162 7.46819C21.7052 8.19243 22 9.08318 22 10C22 10.9168 21.7052 11.8076 21.162 12.5318C20.6188 13.256 19.8582 13.7726 19 14" stroke="white" stroke-width="2" stroke-linecap="round" stroke-linejoin="round"/>
</g>
</svg>
