<svg width="157" height="44" viewBox="0 0 157 44" fill="none" xmlns="http://www.w3.org/2000/svg">
<g id="Layer_1" clip-path="url(#clip0_4355_2224)">
<g id="Group">
<path id="Vector" d="M53.4301 28.323V24.7905H63.4869C64.2682 24.7905 64.7416 24.4094 64.7416 23.7207C64.7416 23.032 64.2682 22.5952 63.4869 22.5952H57.5955C54.8865 22.5952 53.2114 20.9526 53.2114 18.5477C53.2114 16.1429 54.7761 14.4424 57.6316 14.4424H67.2531V17.9549H57.6316C57.0859 17.9549 56.7038 18.2803 56.7038 18.9467C56.7038 19.6131 57.0859 19.9385 57.6316 19.9385H63.4869C66.3784 19.9385 67.924 21.2178 67.924 24.0438C67.924 26.4866 66.4697 28.3208 63.4869 28.3208H53.4301V28.323Z" fill="white"/>
<path id="Vector_2" d="M69.5439 28.323V14.4424H72.9089V28.323H69.5439ZM79.9638 28.323L74.3993 22.6531C73.8346 22.0803 73.7072 21.6791 73.7072 21.2222C73.7072 20.6695 73.9259 20.2483 74.5437 19.6376L79.7451 14.4446H84.6726L77.6348 21.2423L84.9274 28.3253H79.9616L79.9638 28.323Z" fill="white"/>
<path id="Vector_3" d="M91.931 28.323V23.5112L85.1479 14.4424H89.6594L93.7335 20.2839L97.8245 14.4424H102.079L95.2769 23.5112V28.323H91.931Z" fill="white"/>
<path id="Vector_4" d="M107.024 28.323V17.9549H102.313V14.4424H115.081V17.9549H110.389V28.323H107.024Z" fill="white"/>
<path id="Vector_5" d="M126.793 28.323L125.065 25.2496H120.155L121.645 22.5951H123.573L121.681 19.2342L116.588 28.323H112.769L120.189 15.3784C120.588 14.692 121.08 14.2529 121.806 14.2529C122.532 14.2529 123.006 14.692 123.407 15.3784L130.827 28.323H126.789H126.793Z" fill="white"/>
<path id="Vector_6" d="M131.884 28.323V14.4424H135.249V24.7905H143.47V28.323H131.884Z" fill="white"/>
<path id="Vector_7" d="M144.761 28.323V14.4424H156.964V17.9549H148.107V24.7905H157V28.323H144.761ZM149.727 22.5952V19.9407H156.457V22.5952H149.727Z" fill="white"/>
</g>
<g id="Group_2">
<path id="Vector_8" fill-rule="evenodd" clip-rule="evenodd" d="M39.5012 10.0984C37.7412 5.24866 33.2701 1.80078 28.0326 1.80078C21.2581 1.80078 15.7637 7.56879 15.7637 14.6807C15.7637 16.9741 16.3348 19.1271 17.3347 20.9903C18.3792 13.9987 24.8417 8.6163 32.6587 8.6163C35.1151 8.6163 37.4398 9.14897 39.5034 10.0962L39.5012 10.0984Z" fill="white"/>
<path id="Vector_9" fill-rule="evenodd" clip-rule="evenodd" d="M15.6254 0C10.7085 0.530443 6.37964 4.17222 5.02303 9.48333C3.26941 16.3546 7.15455 23.4175 13.6998 25.2584C15.8101 25.8513 17.9374 25.829 19.9118 25.2986C13.7508 22.4301 10.4686 14.4824 12.4897 6.55921C13.1266 4.06747 14.2179 1.84986 15.6254 0Z" fill="white"/>
<path id="Vector_10" fill-rule="evenodd" clip-rule="evenodd" d="M0.155109 21.5967C-0.630411 26.7206 1.59877 32.054 6.13567 34.802C12.0037 38.3569 19.5086 36.2463 22.897 30.0882C23.9903 28.1024 24.519 25.9383 24.5423 23.7987C20.309 29.3059 12.1481 30.5763 5.37775 26.4732C3.25048 25.1827 1.49049 23.5023 0.155109 21.5989V21.5967Z" fill="white"/>
<path id="Vector_11" fill-rule="evenodd" clip-rule="evenodd" d="M16.0225 42.8745C20.5339 44.9985 26.0177 44.1159 29.7202 40.2267C34.5119 35.1965 34.5119 27.0392 29.7202 22.0112C28.1768 20.3886 26.3213 19.2899 24.3575 18.7148C28.3296 24.4316 27.3849 33.0368 21.8608 38.8382C20.122 40.6614 18.12 42.0097 16.0225 42.8723V42.8745Z" fill="white"/>
<path id="Vector_12" fill-rule="evenodd" clip-rule="evenodd" d="M39.707 32.2925C42.8279 28.2673 43.4351 22.4793 40.8152 17.7164C37.429 11.5584 29.922 9.44554 24.0539 13.0004C22.1623 14.1482 20.6719 15.7418 19.6338 17.5849C25.9243 15.0375 33.5948 18.2224 37.5033 25.3276C38.7325 27.5631 39.4544 29.9434 39.7049 32.2925H39.707Z" fill="white"/>
<path id="Vector_13" fill-rule="evenodd" clip-rule="evenodd" d="M17.3326 20.9929C18.3771 14.0013 24.8396 8.61883 32.6566 8.61883C35.1129 8.61883 37.4377 9.15151 39.5012 10.0987C39.497 10.0876 39.4927 10.0742 39.4885 10.0608C36.7137 7.9034 32.992 6.58398 28.8988 6.58398C23.4979 6.58398 18.7402 8.88183 15.9611 12.3698C15.8316 13.1209 15.7637 13.8921 15.7637 14.6833C15.7637 16.9766 16.3348 19.1296 17.3347 20.9929H17.3326Z" fill="#CAF0F8"/>
<path id="Vector_14" fill-rule="evenodd" clip-rule="evenodd" d="M19.912 25.2986C13.7509 22.4301 10.4687 14.4824 12.4899 6.55921C13.1268 4.06747 14.218 1.84986 15.6256 0C15.6128 0 15.598 0.00222875 15.5874 0.0044575C12.8847 2.25772 10.7065 5.69223 9.64713 9.84216C8.25018 15.3182 9.13336 20.7385 11.6215 24.4605C12.2776 24.7859 12.9718 25.0534 13.6979 25.2584C15.8082 25.8513 17.9354 25.829 19.9098 25.2986H19.912Z" fill="#CAF0F8"/>
<path id="Vector_15" fill-rule="evenodd" clip-rule="evenodd" d="M24.5422 23.7984C20.3089 29.3057 12.148 30.576 5.37762 26.4729C3.25035 25.1825 1.49036 23.502 0.154976 21.5986C0.152853 21.612 0.15073 21.6254 0.146484 21.6387C1.52221 24.9618 4.11867 28.0598 7.662 30.2083C12.339 33.0455 17.5532 33.5492 21.623 31.9913C22.0922 31.4096 22.5189 30.7744 22.8947 30.0924C23.9881 28.1066 24.5167 25.9425 24.5401 23.8029L24.5422 23.7984Z" fill="#CAF0F8"/>
<path id="Vector_16" fill-rule="evenodd" clip-rule="evenodd" d="M24.3575 18.7148C28.3296 24.4316 27.3849 33.0368 21.8608 38.8382C20.122 40.6613 18.12 42.0097 16.0225 42.8723C16.0331 42.879 16.0458 42.8834 16.0586 42.8901C19.4724 42.3552 22.9945 40.5254 25.8882 37.4898C29.7075 33.4803 31.5227 28.323 31.1405 23.7919C30.7265 23.1657 30.2552 22.5706 29.7224 22.0112C28.1789 20.3886 26.3234 19.2899 24.3596 18.7148H24.3575Z" fill="#CAF0F8"/>
<path id="Vector_17" fill-rule="evenodd" clip-rule="evenodd" d="M19.6338 17.5851C25.9243 15.0377 33.5948 18.2226 37.5033 25.3278C38.7325 27.5633 39.4544 29.9436 39.7049 32.2927C39.7134 32.2815 39.7198 32.2704 39.7282 32.2615C40.1231 28.662 39.3482 24.6169 37.3016 20.8948C34.6033 15.9849 30.3254 12.8089 26.0602 12.0244C25.3766 12.2807 24.7036 12.6061 24.0539 13.0006C22.1623 14.1484 20.6719 15.742 19.6338 17.5851Z" fill="#CAF0F8"/>
</g>
</g>
<defs>
<clipPath id="clip0_4355_2224">
<rect width="157" height="44" fill="white"/>
</clipPath>
</defs>
</svg>
