<svg width="39" height="39" viewBox="0 0 39 39" fill="none" xmlns="http://www.w3.org/2000/svg">
<g id="user (8) 1">
<rect width="39" height="39" rx="19.5" fill="white"/>
<path id="Vector" d="M29.9001 31.2004V28.6004C29.9001 27.2213 29.3522 25.8986 28.3771 24.9234C27.4019 23.9482 26.0792 23.4004 24.7001 23.4004H14.3001C12.921 23.4004 11.5983 23.9482 10.6231 24.9234C9.64795 25.8986 9.1001 27.2213 9.1001 28.6004V31.2004" stroke="#212D63" stroke-width="2" stroke-linecap="round" stroke-linejoin="round"/>
<path id="Vector_2" d="M19.4998 18.1998C22.3717 18.1998 24.6998 15.8717 24.6998 12.9998C24.6998 10.1279 22.3717 7.7998 19.4998 7.7998C16.6279 7.7998 14.2998 10.1279 14.2998 12.9998C14.2998 15.8717 16.6279 18.1998 19.4998 18.1998Z" stroke="#212D63" stroke-width="2" stroke-linecap="round" stroke-linejoin="round"/>
</g>
</svg>
