<svg width="30" height="30" viewBox="0 0 30 30" fill="none" xmlns="http://www.w3.org/2000/svg">
<g id="Varsel">
<path id="Vector" d="M13.2898 6.8602L4.81978 21.0002C4.64514 21.3026 4.55274 21.6455 4.55177 21.9947C4.55079 22.3439 4.64127 22.6873 4.8142 22.9907C4.98714 23.2941 5.2365 23.547 5.53748 23.7241C5.83847 23.9012 6.18058 23.9964 6.52978 24.0002H23.4698C23.819 23.9964 24.1611 23.9012 24.4621 23.7241C24.7631 23.547 25.0124 23.2941 25.1854 22.9907C25.3583 22.6873 25.4488 22.3439 25.4478 21.9947C25.4468 21.6455 25.3544 21.3026 25.1798 21.0002L16.7098 6.8602C16.5315 6.56631 16.2805 6.32332 15.981 6.15469C15.6814 5.98605 15.3435 5.89746 14.9998 5.89746C14.656 5.89746 14.3181 5.98605 14.0186 6.15469C13.7191 6.32332 13.468 6.56631 13.2898 6.8602Z" stroke="white" stroke-width="2" stroke-linecap="round" stroke-linejoin="round"/>
<path id="Vector_2" d="M15 12V16" stroke="white" stroke-width="2" stroke-linecap="round" stroke-linejoin="round"/>
<path id="Vector_3" d="M15 20H15.01" stroke="white" stroke-width="2" stroke-linecap="round" stroke-linejoin="round"/>
</g>
</svg>
